<svg width="1811" height="317" viewBox="0 0 1811 317" fill="none" xmlns="http://www.w3.org/2000/svg" xmlns:xlink="http://www.w3.org/1999/xlink">
<g id="Repeat group 1_inner" data-figma-trr="l4u1-0f">
<path fill-rule="evenodd" clip-rule="evenodd" d="M224.346 88.9928C232.894 72.2974 242.875 19.2137 328.843 1.80435C401.031 -12.8149 478.582 63.5122 444.45 154.307C412.354 239.682 251.153 223.139 275.568 107.183C285.121 61.8131 376.366 43.7562 386.641 111.351C386.827 112.569 378.487 159.863 368.16 120.907C366.739 115.546 342.625 98.7087 332.265 104.364C255.231 146.421 382.335 221.47 413.658 130.938C425.243 97.4525 388.463 -0.0101266 293.31 50.0767C225.038 86.0141 257.197 216.902 252.021 313.014C251.804 317.043 206.191 319.47 205.634 313.031C193.113 168.406 228.581 72.0156 126.665 45.2392C47.2484 24.374 -5.97343 162.092 80.025 180.84C128.323 191.369 167.705 125.248 113.017 111.631C109.272 110.698 83.7888 118.683 80.5114 134.817C74.4539 164.636 41.305 108.247 91.3548 79.4037C119.407 63.2377 201.079 79.6419 169.676 171.829C153.504 219.304 8.5728 262.174 0.193464 120.895C-5.81977 19.5069 129.797 -31.8971 204.304 55.2222C215.161 67.9169 219.133 88.7438 224.346 88.9935L224.346 88.9928Z" fill="#F4564D"/>
</g>
<use xlink:href="#Repeat%20group%201_inner" transform="translate(452.745)"/>
<use xlink:href="#Repeat%20group%201_inner" transform="translate(905.491)"/>
<use xlink:href="#Repeat%20group%201_inner" transform="translate(1358.24)"/>
</svg>
