<svg width="4316" height="1921" viewBox="0 0 4316 1921" fill="none" xmlns="http://www.w3.org/2000/svg">
<path fill-rule="evenodd" clip-rule="evenodd" d="M1.67488 165.196C117.698 210.573 123.92 -48.2168 272.56 48.1132C311.491 73.3394 366.92 207.499 505.977 119.615C535.844 100.741 533.196 3.71713 672.578 26.3688C720.378 34.1386 812.228 181.652 895.45 139.433C1165.07 2.652 1136.47 168.446 1127.42 185.069C1084.8 263.369 929.779 374.952 1172.44 415.82C1470.22 465.976 1370.68 802.779 1171.83 760.152C1153.02 756.124 1126.02 694.752 1165.47 669.535C1339.73 558.194 1114.85 380.435 1000.28 556.759C904.384 704.337 960.618 939.031 1126.42 989.011C1140.93 993.382 1295.01 1039.82 1285.44 1091.97C1268.04 1186.69 997.892 1094.5 1006.83 1304.72C1009.38 1364.79 1096.38 1419.87 1135.12 1405.91C1261.73 1360.3 1316.28 1276.63 1298.54 1359.58C1232.83 1666.76 1617 1576.82 1581.43 1406.3C1568.78 1345.65 1541.53 1299.27 1597.56 1324.96C1623.11 1336.68 1712.54 1452.14 1811 1369.3C1864.61 1324.19 1873.34 1154.7 1764.06 1142.52C1654.09 1130.26 1637.57 1159.85 1588.26 1092.34C1516.9 994.633 1853.48 1040.55 1918.02 784.952C1957.93 626.955 1801.29 374.748 1655.05 527.809C1642.91 540.524 1619.66 622.991 1683.08 653.367C1689.42 656.404 1770.66 695.308 1708.11 737.676C1529.21 858.862 1385.78 423.163 1672.14 412.208C1993.38 399.928 1726.21 214.926 1719.15 165.659C1698.52 21.646 1890.58 101.678 1904.96 107.669C2108 192.266 2080.92 36.8058 2200.92 11.7C2315.77 -12.3315 2343.57 180.134 2495.73 117.606C2536.51 100.853 2645.24 -107.05 2748.56 81.1554C2806.39 186.515 2943.42 140.081 2981.82 84.9798C3131.92 -130.425 3169.09 131.701 3301.73 130.969C3454.83 130.126 3456.36 -57.8846 3595.49 39.6585C3689.57 105.623 3682.74 151.287 3791.9 116.985C3798.21 115.004 3968.37 19.1456 4020.09 121.189C4066.22 212.185 3809.43 337.436 3985.69 400.854C3992.62 403.354 4201.76 375.748 4243.56 527.466C4277.17 649.504 4134.54 830.153 4034.92 720.256C3981.23 661.034 4165.67 609.748 4105.79 518.53C4008.22 369.877 3748.77 592.737 3880.45 857.973C3961.81 1021.85 4273.12 990.234 4169.91 1108.43C4139.26 1143.53 3833.29 1139.7 3917.03 1321.25C3948.11 1388.62 4068.39 1392.87 4085.58 1375.11C4190.39 1266.81 4208.46 1340.82 4205.52 1350.17C4162.85 1486.12 4173.91 1540.05 4316 1527.35C4315.9 1556.31 4315.31 1730.81 4314.5 1889.41C4309.08 1888.37 4177.56 1897.23 4074.83 1746.1C4058.59 1722.21 4020.65 1614.55 4008.32 1649.4C3955.65 1798.41 3974.72 1823.26 3829.1 1887.28C3700.5 1943.82 3396.8 1832.75 3535.44 1658.35C3619.19 1552.99 3623.4 1733.6 3727.88 1723.3C3916.52 1704.7 3855.55 1271.84 3503.82 1411.46C3274.01 1502.69 3246.79 1836.27 3017.29 1680.87C2920.17 1615.1 3020.48 1432.95 3076.54 1501.75C3163.93 1608.98 3397.42 1549.13 3204.88 1318.41C2819.43 856.528 3367.51 537.496 3540.38 833.839C3601.11 937.966 3495.91 1088.91 3378.04 1023.38C3373.61 1020.91 3248.76 909.776 3194.9 1010.86C3081.92 1222.9 3538.97 1465.05 3714.16 1181.77C3885.33 904.971 3733.14 666.173 3559.99 604.395C3409.98 550.877 3458.39 454.316 3514.77 452.556C3526.27 452.195 3633.8 448.852 3650.53 405.299C3667.81 360.319 3535.59 82.5351 3236.1 377.841C3106.69 505.435 3002.28 522.281 3036.22 416.801C3054.73 359.246 3265.58 263.536 3096.29 169.965C3031.71 134.265 2921.97 235.096 2905.79 226.354C2626.46 75.4967 2587.93 264.944 2657.98 327.991C2667.86 336.881 2767.35 426.405 2743.88 470.282C2686.26 578.03 2452.67 153.565 2211.19 280.437C2123.27 326.639 2103.83 472.254 2237.37 465.095C2402.8 456.233 2337.33 538.829 2328.52 542.57C2238.55 580.836 2143.19 531.153 2030.19 822.143C1978.63 954.914 2071.11 1131.87 2164.36 1191.78C2552.82 1441.37 2747.71 951.533 2514.85 954.811C2439.08 955.876 2403.44 1142.48 2283.6 1017.58C2211.54 942.477 2216.41 687.437 2524.43 727.943C2743.4 756.744 2782.28 1115.48 2671.87 1239.55C2655.8 1257.62 2419.66 1468.99 2579.52 1546.1C2653.27 1581.67 2795.23 1407.81 2816.88 1564.54C2829.86 1658.46 2710.41 1855.5 2502.35 1566.51C2351.9 1357.54 1948.03 1319.59 1987.07 1628.94C1998.38 1718.61 2127.01 1758.6 2179.36 1673.78C2256.94 1548.11 2411.98 1867.42 2154.13 1891.98C1722.84 1933.05 1832.94 1556.62 1759.66 1632.05C1742.42 1649.79 1788.59 1725.69 1662.91 1832.3C1542.84 1934.14 1168.43 1930.8 1159.01 1638.86C1151.67 1411.2 1177.91 1798.52 967.886 1885.71C679.244 2005.53 533.558 1791.92 664.32 1666.95C746.394 1588.51 742.032 1768.61 847.733 1729.07C1056.34 1651.04 856.427 1198.32 477.129 1525.88C402.342 1590.47 276.994 1873.84 119.041 1719.4C68.3893 1669.88 76.2125 1437.17 201.105 1544.62C302.973 1632.25 512.995 1519.35 301.714 1314.62C214.688 1230.28 85.1843 1105.28 213.521 872.253C381.122 567.946 845.409 824.522 633.907 1043.85C614.261 1064.23 523.596 1108.22 499.274 1071.62C350.422 847.554 215.039 1097.08 349.014 1211.63C726.072 1534.02 1150.61 819.216 681.447 573.816C655.849 560.425 505.764 549.211 589.282 517.706C601.271 513.187 869.064 472.505 745.347 314.915C550.027 66.1166 231.37 628.437 147.972 488.174C83.8689 380.36 386.787 313.109 226.667 195.831C191.245 169.883 86.8963 210.426 54.863 242.672C11.3681 286.457 14.2392 342.437 10.6008 369.442L0 378.702C0.583265 307.524 1.17525 236.347 1.75851 165.169L1.67488 165.196Z" fill="#EDCE9C"/>
</svg>
