<svg width="1806" height="469" viewBox="0 0 1806 469" fill="none" xmlns="http://www.w3.org/2000/svg">
<mask id="path-1-outside-1_24_56" maskUnits="userSpaceOnUse" x="0" y="-0.826172" width="1807" height="469" fill="black">
<rect fill="white" y="-0.826172" width="1807" height="469"/>
<path d="M1115.68 332.789C1117.68 342.028 1119.56 347.05 1119.74 352.137C1120.76 380.66 1138.83 400.123 1155.83 418.055C1196.66 461.121 1273.59 446.408 1296.8 390.908C1308.95 361.855 1314.13 319.793 1277.26 294.096C1261.72 283.263 1232.75 284.453 1220.49 299.605C1216.01 305.144 1213.68 312.398 1217.06 319.207C1220.34 325.788 1225.9 328.914 1233.97 327.487C1254.38 323.876 1268.4 329.531 1272.36 341.969C1277.96 359.596 1269.94 381.568 1254.65 391.309C1229.72 407.184 1204.29 409.063 1180.55 390.526C1160.92 375.2 1149.34 354.645 1147.22 327.6C1143.41 279.126 1181.54 219.856 1231.65 213.617C1252.87 210.976 1269.25 208.06 1295.9 224.859C1298.1 207.074 1291.92 190.188 1294.12 172.187C1298.26 138.37 1320.79 121.31 1344.1 104.203C1349.64 100.139 1356.74 101.015 1362.76 106.682C1371.19 114.625 1380.78 121.261 1389.1 129.328C1407.26 146.959 1412.03 169.301 1408.95 194.214C1407.72 204.216 1407.24 214.32 1406.22 226.8C1426.45 211.888 1447.64 208.092 1469.28 212.68C1490.74 217.229 1511.37 225.3 1526.14 243.746C1549.13 272.47 1565.21 303.466 1555.06 342.716C1546.22 376.949 1509.59 411.109 1474.83 403.502C1448.16 397.666 1430.94 379.567 1431.73 352.774C1432.26 334.944 1443.64 324.132 1461.01 325.259C1465.65 325.561 1470.24 327.262 1474.85 327.239C1487.21 327.177 1492.88 317.271 1487.1 306.464C1475.32 284.421 1441.25 281.158 1422.41 296.47C1402.38 312.745 1403.7 337.169 1394.56 357.456C1406.4 372.268 1404.43 393.088 1416.99 408.384C1452.61 451.765 1503 451.703 1544.52 418.877C1567.85 400.441 1576.36 385.101 1590.76 337.567C1618.51 407.801 1671.35 434.744 1742.41 441.206C1617.05 295.738 1494.37 153.379 1370.91 10.1081C1386.37 6.13806 1401.4 9.27591 1415.83 10.7302C1462.99 15.484 1508.5 26.0639 1543.63 63.0948C1545.72 65.2977 1546.92 68.3773 1548.78 70.8528C1554.79 78.8605 1556.77 82.1367 1565.09 69.6656C1589.62 32.905 1621.85 7.54675 1668.65 9.14954C1692.76 9.9751 1713.9 14.4454 1732.99 31.6731C1773.88 68.5829 1781.31 118.666 1758.69 166.504C1743.47 198.675 1699.62 210.073 1668.83 193.845C1654.54 186.316 1640.73 156.794 1644.24 141.289C1647.04 128.951 1659.73 120.997 1676.83 122.432C1689.42 123.488 1704.14 127.806 1706.14 109.122C1708.07 91.0867 1691.87 92.1234 1680.58 88.5447C1664.95 83.5887 1650.85 84.4514 1635.96 93.2278C1621.3 101.868 1616.2 116.593 1614.19 130.261C1605.14 191.916 1641.08 230.054 1696.24 236.881C1715.63 239.281 1733.81 230.644 1749.54 218.004C1754.31 214.168 1758.61 208.301 1765.94 212.539C1773.02 216.638 1768.54 222.993 1768.96 228.484C1770.12 243.617 1763.98 257.092 1759.8 270.806C1751.73 297.254 1763.51 320.031 1782.15 335.46C1789.27 341.351 1799.3 344.931 1797.86 357.319C1797.54 360.081 1795.74 363.551 1793 362.349C1784.04 358.414 1776.14 352.92 1768.66 346.013C1743.56 322.838 1740.09 293.81 1744.34 261.635C1745.65 251.734 1740.78 245.695 1730.11 250.228C1687.04 268.529 1653.09 247.83 1621.9 221.08C1575.95 181.662 1588.56 90.3297 1642.37 65.7653C1662.75 56.4622 1702.07 67.8811 1714.74 86.785C1722.03 97.6564 1722.5 124.404 1715.25 134.391C1706.68 146.187 1694.5 146.008 1682.71 142.699C1673.95 140.241 1666.41 139.952 1663.81 149.78C1661.18 159.722 1664.34 169.099 1673.96 174.278C1705.17 191.069 1739.35 176.162 1749.41 141.637C1759.28 107.738 1753.05 76.5187 1729.68 51.7655C1707.85 28.6434 1667.66 20.0604 1635.85 34.3048C1610.19 45.7999 1590.95 61.9885 1576.95 86.389C1572.36 94.3978 1568.19 102.311 1567.53 111.79C1567.23 116.137 1567.07 121.354 1562.05 122.208C1556.19 123.205 1554.2 117.569 1552.52 113.228C1539.5 79.6303 1515.24 56.4637 1484.07 43.9977C1461.43 34.9425 1436.91 28.7023 1409.82 26.8571C1428.08 48.3049 1444.86 68.0699 1461.71 87.7726C1474.2 102.38 1486.81 116.873 1499.3 131.48C1515.36 150.253 1531.26 169.167 1547.38 187.88C1572.22 216.723 1597.14 245.497 1622.13 274.21C1666.08 324.729 1710.17 375.128 1754.05 425.719C1760.25 432.866 1765.65 440.772 1771.32 448.405C1773.16 450.886 1776.1 453.338 1774.47 456.918C1772.85 460.474 1769.27 459.81 1766.22 459.669C1729.78 457.983 1693.54 452.57 1659.14 440.926C1637.93 433.748 1618.59 419.295 1604.97 399.034C1596.33 386.17 1593.96 386.702 1585.7 399.627C1546.7 460.668 1468.98 478.764 1414.96 433.801C1388.55 411.815 1371.26 353.483 1383.72 321.112C1398.15 283.637 1424.66 263.098 1465.44 269.958C1495.71 275.051 1512 296.198 1506.24 322.9C1501.87 343.117 1489.71 349.967 1471.61 342.156C1462.15 338.074 1455.38 341.99 1450.07 349.704C1444.43 357.906 1447.02 364.777 1453.91 370.896C1468.99 384.307 1487.19 389.545 1504.8 382.038C1524.71 373.554 1534.41 354.275 1537.68 332.216C1546.94 269.896 1503.67 236.595 1460.16 229.474C1445.19 227.023 1428.26 230.882 1414.59 241.202C1409.55 245.008 1404.54 248.864 1399.49 252.653C1395.11 255.934 1390.79 262.617 1385.11 255.927C1381.3 251.441 1376.68 247.489 1380.48 238.545C1388.22 220.309 1392.8 200.87 1392.63 180.412C1392.41 154.035 1377.78 137.519 1358.25 124.55C1351.45 120.033 1344.65 120.763 1337.32 127.601C1311.52 151.683 1303.14 179.367 1316.57 213.432C1319.89 221.86 1321.64 230.941 1324.49 239.592C1327.38 248.406 1321.59 252.835 1316.27 256.902C1310.75 261.124 1307.37 256.62 1303.27 252.64C1288.07 237.859 1269.74 229.117 1249.03 227.453C1237.17 226.5 1225.87 232.725 1215.91 237.88C1169.48 261.912 1152.44 309.422 1173.79 355.465C1189.47 389.261 1222.33 395.182 1251.47 370.125C1257.34 365.07 1256.78 356.339 1253.07 349.046C1248.62 340.29 1241.31 339.798 1232.92 341.574C1225.29 343.186 1217.47 353.729 1210.17 344.997C1202.37 335.677 1196.03 324.967 1197.28 310.635C1199.03 290.59 1211 277.282 1236.18 271.054C1277.96 260.721 1310.55 285.547 1320.56 328.996C1329.42 367.435 1317.48 398.245 1296.38 426.429C1274.48 455.678 1241.82 461.498 1208.9 457.868C1170.68 453.653 1138.74 435.856 1119.63 398.867C1115.02 389.956 1109.07 383.28 1101.46 394.511C1070.91 439.566 1024.93 450.237 976.758 456.299C963.352 457.986 949.853 458.946 936.374 459.881C933.009 460.114 928.446 461.098 926.985 456.349C925.87 452.726 929.323 450.886 931.341 448.494C953.015 422.813 974.316 396.787 996.286 371.384C1018.41 345.799 1041.41 321.026 1063.61 295.509C1093.2 261.495 1122.31 227.028 1151.78 192.898C1182.78 157.002 1214.34 121.625 1244.89 85.3268C1260.36 66.9492 1277.32 49.8287 1293.38 25.1618C1259.73 34.6199 1228.41 35.8642 1200.57 54.7971C1173.17 73.4353 1154.72 98.1923 1142.76 132.318C1135.27 114.84 1132.43 99.2039 1125.64 84.7596C1099.63 29.4803 1029.07 10.0612 977.58 45.7241C969.039 51.6394 966.096 60.559 961.799 68.9661C945.721 100.428 946.246 130.948 963.937 162.175C974.322 180.505 991.007 177.826 1006.15 179.673C1013.92 180.621 1022.71 177.401 1030.29 174.16C1041.4 169.402 1042.72 158.889 1040.2 148.147C1037.78 137.802 1030.01 141.346 1023.61 142.727C1011.14 145.416 998.633 148.566 990.601 133.841C980.53 115.378 981.752 96.6974 993.824 82.7473C1014.72 58.5989 1056.91 56.8485 1079.95 79.0724C1129.07 126.439 1113.13 197.193 1065.81 234.954C1048.72 248.591 1028.72 253.059 1009.3 258.093C992.895 262.348 977.401 249.668 960.374 247.376C958.364 255.875 964.38 263.184 965.441 271.475C970.535 311.322 940.743 349.491 909.552 363.277C904.301 365.598 899.578 363.789 894.727 361.161C858.642 341.614 832.713 296.644 848.201 253.352C848.856 251.521 848.623 249.346 848.892 246.344C834.039 250.419 820.256 254.707 806.241 257.898C792.575 261.009 780.334 252.922 768.422 248.766C741.529 239.381 718.339 220.335 708.702 193.011C697.599 161.53 691.32 127.024 713.584 95.9542C744.035 53.4576 791.335 53.5315 819.311 88.349C827.662 98.7425 830.184 110.913 824.098 122.857C817.04 136.706 807.355 148.204 789.525 143.145C780.742 140.653 769.876 137.251 767.568 149.417C765.457 160.547 770.014 171.65 783.069 175.777C801.828 181.708 821.08 183.64 836.372 169.738C855.431 152.412 863.726 128.857 858.998 102.398C854.942 79.703 845.486 57.1689 828.018 44.327C807.881 29.5219 782.872 23.0331 756.754 28.3712C726.651 34.524 703.799 51.9628 685.187 76.3262C677.808 85.9846 677.228 98.4123 673.507 109.559C671.802 114.665 670.96 120.775 664.296 120.933C657.663 121.09 656.961 115.517 655.022 110.157C645.712 84.4413 626.896 67.4028 605.319 52.88C578.798 35.0302 548.603 32.3455 516.065 26.596C530.261 52.1515 550.631 67.6124 566.306 87.2451C581.13 105.813 596.841 123.576 611.56 142.343C626.729 161.684 644.914 178.707 660.927 197.624C689.38 231.239 718.254 264.471 747.033 297.787C790.619 348.245 834.27 398.643 877.916 449.046C879.953 451.398 883.334 453.439 881.347 457.107C879.202 461.067 874.889 460.151 871.446 459.91C845.612 458.1 820.151 453.676 794.56 449.594C756.426 443.511 729.135 421.702 705.303 393.056C697.156 383.264 693.399 390.346 690.609 396.436C682.994 413.059 672.024 426.004 657.037 435.869C624.007 457.612 589.444 465.222 551.115 452.793C501.276 436.632 475.616 372.346 488.658 325.597C502.048 277.598 543.229 252.362 589.663 279.366C610.26 291.344 615.91 308.405 607.419 331.674C602.224 345.91 593.488 349.564 579.87 342.842C568.402 337.182 558.561 340.459 553.094 351.122C547.505 362.022 552.628 369.18 563.69 374.876C583.38 385.016 601.826 392.595 621.202 374.804C644.352 353.549 648.492 310.573 635.477 281.263C620.922 248.489 594.153 235.536 564.872 227.635C551.643 224.065 535.042 230.057 522.782 239.738C516.984 244.317 511.045 248.334 504.941 252.348C499.591 255.868 495.89 260.751 488.951 254.141C482.637 248.127 482.708 242.25 485.609 235.305C492.255 219.397 497.169 203.305 498.562 185.639C500.786 157.421 484.541 140.281 466.897 124.024C460.1 117.76 451.942 122.564 445.643 127.567C420.399 147.617 408.598 172.624 419.797 208.157C423.182 218.898 424.859 230.219 428.219 240.971C430.469 248.175 426.384 253.022 422.87 256.74C417.964 261.929 413.364 256.592 409.681 252.907C397.122 240.344 381.7 233.542 365.45 228.062C363.708 227.475 362.622 226.413 360.324 226.766C320.012 232.965 290.486 246.356 273.181 291.613C262.166 320.423 275.302 363.477 299.363 380.321C314.065 390.613 349.142 383.068 358.988 367.223C362.887 360.95 364.112 354.249 358.771 347.765C353.052 340.822 345.601 337.401 338.021 342.1C329.486 347.393 322.553 349.794 314.419 341.789C304.782 332.304 300.39 321.486 300.55 307.362C300.816 284.039 341.951 266.1 363.026 268.619C403.042 273.401 427.894 305.193 428.584 348.774C429.136 383.687 416.879 412.041 393.141 434.488C371.89 454.583 345.232 460.265 316.388 458.227C276.897 455.437 248.946 433.354 225.4 403.096C218.011 393.601 214.458 385.452 202.276 400.776C172.368 438.4 129.742 450.357 85.0166 455.641C72.1216 457.164 59.1558 458.047 46.2184 459.175C41.6703 459.572 35.9272 461.751 33.3771 456.634C30.3181 450.495 36.3325 447.023 39.6606 443.226C67.2592 411.746 95.2524 380.634 122.56 348.885C162.557 302.381 201 254.377 242.163 209.029C274.057 173.89 302.969 136.067 335.404 101.459C354.161 81.4453 371.223 59.7188 389.135 38.8444C390.833 36.8661 393.718 35.3457 392.487 32.3381C390.697 27.9629 386.363 28.3503 382.946 28.8487C330.52 36.4945 284.559 55.2681 258.572 107.888C257.386 110.29 256.551 112.89 255.255 115.22C253.191 118.934 251.184 123.455 246.018 122.219C241.26 121.08 239.942 116.621 239.557 112.161C236.148 72.6844 210.44 53.7341 179.347 37.5123C149.221 21.7939 121.494 26.5928 92.9189 40.072C68.8341 51.433 51.4646 90.8466 55.9656 126.129C56.8502 133.062 58.0476 140.131 60.3488 146.662C72.9458 182.414 99.2472 184.302 129.717 175.918C137.713 173.717 141.043 166.634 143.683 159.585C148.407 146.974 142.321 139.709 129.258 141.572C123.135 142.446 116.963 143.413 110.806 143.467C98.4697 143.578 91.4534 136.251 89.4691 124.196C83.4097 87.3805 98.8118 71.8457 134.2 64.2792C176.745 55.183 215.677 103.48 215.271 142.943C215.023 166.939 209.151 188.229 194.073 208.719C184.616 221.57 173.561 231.348 161.839 238.911C140.792 252.491 117.496 262.074 91.1097 253.31C64.9714 244.628 63.8083 245.311 66.9949 273.334C71.4537 312.553 52.0417 337.71 23.7731 358.36C19.8534 361.224 14.8071 367.065 10.3092 361.267C5.72681 355.36 8.42944 348.348 14.3375 344.536C24.6228 337.899 33.1398 329.9 40.2258 319.511C53.0594 300.698 52.6504 280.374 47.7552 259.705C45.0471 248.269 40.4331 237.236 35.8634 226.391C32.488 218.382 37.7496 215.683 42.2911 212.224C46.7065 208.859 50.3521 209.351 54.5663 213.608C77.9435 237.226 105.092 240.971 135.939 231.959C156.268 226.02 170.366 212.506 183.404 197.202C211.106 164.686 193.346 95.291 155.094 85.5568C137.172 80.996 121.638 90.523 105.893 96.7318C101.038 98.6463 102.439 106.471 103.963 111.548C105.876 117.919 109.168 123.658 116.899 123.397C122.607 123.205 128.302 122.594 134.002 122.158C145.709 121.263 156.421 123.563 161.298 136.014C166.599 149.545 167.187 163.87 158.354 176.02C133.723 209.898 73.744 210.186 49.7079 164.853C24.8287 117.931 36.1957 77.1537 65.6531 40.8532C77.917 25.7403 96.3914 13.1335 118.647 10.3498C178.074 2.91705 220.864 27.4231 251.28 82.5404C297.131 14.022 366.222 10.5907 439.014 8.51114C314.868 153.706 190.45 294.377 67.1622 441.613C136.899 433.934 191.073 409.322 217.189 337.452C226.579 355.542 228.431 373.43 237.772 388.715C270.357 442.037 343.633 467.642 390.416 409.423C410.343 384.626 419.102 353.344 404.967 320.586C390.856 287.882 351.398 273.522 327.21 298.345C320.833 304.889 317.932 311.705 321.103 320.002C324.871 329.864 333.676 328.013 341.288 326.993C361.988 324.222 373.085 330.331 377.543 347.556C381.016 360.974 371.294 383.841 358.994 390.006C348.55 395.24 340.233 403.554 326.73 403.999C288.503 405.259 259.641 372.71 253.143 336.233C241.737 272.209 306.444 194.705 374.448 214.721C377.921 215.744 381.636 215.852 385.217 216.51C399.352 219.111 405.437 212.072 401.254 198.23C393.311 171.941 401.299 149.776 418.919 130.963C427.561 121.736 437.927 114.278 447.128 105.582C452.695 100.321 458.257 100.704 464.372 103.597C495.45 118.304 518.304 156.724 515.739 190.952C514.946 201.524 512.588 211.969 510.662 224.295C524.221 219.131 535.718 213.918 548.759 212.119C590.284 206.39 644.927 235.507 655.906 291.709C660.029 312.818 660.1 332.422 655.839 352.211C649.669 380.866 627.344 395.022 603.026 401.954C582.231 407.881 561.532 399.329 545.71 383.742C530.256 368.517 534.497 333.623 552.663 326.297C560.771 323.027 570.996 325.061 580.242 325.336C586.451 325.521 591.741 324.703 594.547 318.227C597.426 311.583 593.593 306.903 589.873 302.255C572.816 280.943 541.986 281.47 522.906 300.497C489.98 333.334 500.145 375.7 519.416 404.106C546.86 444.557 598.384 452.185 632.555 430.003C655.251 415.269 672.023 398.554 682.06 372.403C686.326 361.291 690.278 350.332 692.208 337.113C705.285 345.273 706.038 359.566 711.702 370.15C724.339 393.766 743.969 408.92 765.79 420.13C784.499 429.741 804.258 438.997 826.047 439.727C830.434 439.874 836.086 443.525 838.889 438.079C841.472 433.062 836.64 428.896 833.857 425.415C824.574 413.795 814.983 402.414 805.064 391.374C758.126 339.131 713.184 285.059 667.662 231.505C642.456 201.852 616.43 172.732 589.905 144.164C564.188 116.465 541.093 85.8833 516.23 57.1207C505.467 44.6682 494.843 32.0848 484.066 19.6454C478.987 13.7842 477.5 8.04364 487.445 8.98172C512.145 11.3115 537.227 8.94998 561.555 16.4055C579.863 22.0166 598.272 25.7913 615.136 36.8251C630.73 47.028 644.2 58.8634 655.577 73.4059C659.981 79.0348 662.338 80.8587 666.7 74.0292C671.533 66.4627 677.455 59.7393 682.545 52.2946C695.113 33.9131 713.663 20.3268 733.752 15.1396C776.634 4.06668 819.254 4.70819 850.968 44.2842C887.278 89.5954 887.359 161.366 833.443 194.889C814.699 206.543 793.886 201.51 775.153 191.785C759.029 183.415 750.384 169.439 751.189 149.903C752.05 129.004 758.985 121.847 779.005 122.212C783.682 122.297 788.367 123.131 793.022 122.935C801.02 122.597 809.008 121.906 810.152 110.749C811.211 100.43 806.279 94.5398 797.558 91.0098C750.371 71.9088 708.716 106.668 716.406 158.974C721.434 193.173 740.958 217.216 770.464 229.971C801.261 243.284 831.834 239.559 857.247 214.502C864.219 207.627 869.408 211.334 875.187 214.84C881.981 218.962 877.742 223.612 875.812 228.61C866.708 252.184 858.495 275.877 864.823 302.113C869.152 320.064 880.212 332.022 894.727 341.298C901.052 345.34 907.541 345.079 913.989 341.354C931.636 331.161 944.457 318.734 943.66 294.729C942.904 271.958 942.96 249.329 934.084 228.124C931.31 221.496 930.998 217.671 937.171 213.295C943.239 208.994 947.128 210.421 952.004 215.228C983.84 246.605 1029.98 242.165 1062.99 215.992C1099.44 187.089 1103.07 129.01 1071.53 96.9917C1061.23 86.5259 1049.72 81.5408 1034.9 86.8263C1027.19 89.5733 1018.27 88.6863 1010.62 91.5322C1003.19 94.2977 994.211 97.7612 996.961 109.706C999.492 120.704 1006.78 124.216 1016.81 123.396C1020.43 123.1 1024.04 122.354 1027.67 122.291C1037.51 122.118 1048.95 120.19 1054.37 130.952C1060.82 143.784 1062.06 158.284 1054.7 171.412C1036.02 204.747 987.355 210.007 960.459 183.068C936.184 158.753 931.821 129.411 935.254 96.4971C938.907 61.4684 957.279 38.1959 986.189 22.6024C1028.1 -0.00195312 1066.96 5.8627 1105.89 32.9518C1120.62 43.1995 1126.58 59.112 1138.79 70.352C1144.64 75.7434 1148.28 79.4861 1154.88 71.3307C1191.96 25.487 1242.38 12.4982 1296.89 10.2616C1307.67 9.81924 1318.47 6.55606 1330.22 9.99786C1320.43 30.6936 1303.27 44.5695 1289.06 60.4999C1266.24 86.0809 1246.43 114.464 1222.91 139.083C1177.19 186.965 1137.38 240.225 1092.74 289.067C1051.36 334.347 1011.72 381.357 971.299 427.582C969.229 429.948 966.252 431.96 967.917 435.751C969.417 439.166 972.824 440.161 975.848 439.715C988.681 437.823 1001.99 437.159 1014.12 432.92C1031.6 426.807 1050.99 421.327 1064.37 409.326C1076.54 398.422 1091.12 387.6 1097.88 370.405C1102.48 358.709 1108.57 347.649 1115.68 332.789Z"/>
</mask>
<path d="M1115.68 332.789C1117.68 342.028 1119.56 347.05 1119.74 352.137C1120.76 380.66 1138.83 400.123 1155.83 418.055C1196.66 461.121 1273.59 446.408 1296.8 390.908C1308.95 361.855 1314.13 319.793 1277.26 294.096C1261.72 283.263 1232.75 284.453 1220.49 299.605C1216.01 305.144 1213.68 312.398 1217.06 319.207C1220.34 325.788 1225.9 328.914 1233.97 327.487C1254.38 323.876 1268.4 329.531 1272.36 341.969C1277.96 359.596 1269.94 381.568 1254.65 391.309C1229.72 407.184 1204.29 409.063 1180.55 390.526C1160.92 375.2 1149.34 354.645 1147.22 327.6C1143.41 279.126 1181.54 219.856 1231.65 213.617C1252.87 210.976 1269.25 208.06 1295.9 224.859C1298.1 207.074 1291.92 190.188 1294.12 172.187C1298.26 138.37 1320.79 121.31 1344.1 104.203C1349.64 100.139 1356.74 101.015 1362.76 106.682C1371.19 114.625 1380.78 121.261 1389.1 129.328C1407.26 146.959 1412.03 169.301 1408.95 194.214C1407.72 204.216 1407.24 214.32 1406.22 226.8C1426.45 211.888 1447.64 208.092 1469.28 212.68C1490.74 217.229 1511.37 225.3 1526.14 243.746C1549.13 272.47 1565.21 303.466 1555.06 342.716C1546.22 376.949 1509.59 411.109 1474.83 403.502C1448.16 397.666 1430.94 379.567 1431.73 352.774C1432.26 334.944 1443.64 324.132 1461.01 325.259C1465.65 325.561 1470.24 327.262 1474.85 327.239C1487.21 327.177 1492.88 317.271 1487.1 306.464C1475.32 284.421 1441.25 281.158 1422.41 296.47C1402.38 312.745 1403.7 337.169 1394.56 357.456C1406.4 372.268 1404.43 393.088 1416.99 408.384C1452.61 451.765 1503 451.703 1544.52 418.877C1567.85 400.441 1576.36 385.101 1590.76 337.567C1618.51 407.801 1671.35 434.744 1742.41 441.206C1617.05 295.738 1494.37 153.379 1370.91 10.1081C1386.37 6.13806 1401.4 9.27591 1415.83 10.7302C1462.99 15.484 1508.5 26.0639 1543.63 63.0948C1545.72 65.2977 1546.92 68.3773 1548.78 70.8528C1554.79 78.8605 1556.77 82.1367 1565.09 69.6656C1589.62 32.905 1621.85 7.54675 1668.65 9.14954C1692.76 9.9751 1713.9 14.4454 1732.99 31.6731C1773.88 68.5829 1781.31 118.666 1758.69 166.504C1743.47 198.675 1699.62 210.073 1668.83 193.845C1654.54 186.316 1640.73 156.794 1644.24 141.289C1647.04 128.951 1659.73 120.997 1676.83 122.432C1689.42 123.488 1704.14 127.806 1706.14 109.122C1708.07 91.0867 1691.87 92.1234 1680.58 88.5447C1664.95 83.5887 1650.85 84.4514 1635.96 93.2278C1621.3 101.868 1616.2 116.593 1614.19 130.261C1605.14 191.916 1641.08 230.054 1696.24 236.881C1715.63 239.281 1733.81 230.644 1749.54 218.004C1754.31 214.168 1758.61 208.301 1765.94 212.539C1773.02 216.638 1768.54 222.993 1768.96 228.484C1770.12 243.617 1763.98 257.092 1759.8 270.806C1751.73 297.254 1763.51 320.031 1782.15 335.46C1789.27 341.351 1799.3 344.931 1797.86 357.319C1797.54 360.081 1795.74 363.551 1793 362.349C1784.04 358.414 1776.14 352.92 1768.66 346.013C1743.56 322.838 1740.09 293.81 1744.34 261.635C1745.65 251.734 1740.78 245.695 1730.11 250.228C1687.04 268.529 1653.09 247.83 1621.9 221.08C1575.95 181.662 1588.56 90.3297 1642.37 65.7653C1662.75 56.4622 1702.07 67.8811 1714.74 86.785C1722.03 97.6564 1722.5 124.404 1715.25 134.391C1706.68 146.187 1694.5 146.008 1682.71 142.699C1673.95 140.241 1666.41 139.952 1663.81 149.78C1661.18 159.722 1664.34 169.099 1673.96 174.278C1705.17 191.069 1739.35 176.162 1749.41 141.637C1759.28 107.738 1753.05 76.5187 1729.68 51.7655C1707.85 28.6434 1667.66 20.0604 1635.85 34.3048C1610.19 45.7999 1590.95 61.9885 1576.95 86.389C1572.36 94.3978 1568.19 102.311 1567.53 111.79C1567.23 116.137 1567.07 121.354 1562.05 122.208C1556.19 123.205 1554.2 117.569 1552.52 113.228C1539.5 79.6303 1515.24 56.4637 1484.07 43.9977C1461.43 34.9425 1436.91 28.7023 1409.82 26.8571C1428.08 48.3049 1444.86 68.0699 1461.71 87.7726C1474.2 102.38 1486.81 116.873 1499.3 131.48C1515.36 150.253 1531.26 169.167 1547.38 187.88C1572.22 216.723 1597.14 245.497 1622.13 274.21C1666.08 324.729 1710.17 375.128 1754.05 425.719C1760.25 432.866 1765.65 440.772 1771.32 448.405C1773.16 450.886 1776.1 453.338 1774.47 456.918C1772.85 460.474 1769.27 459.81 1766.22 459.669C1729.78 457.983 1693.54 452.57 1659.14 440.926C1637.93 433.748 1618.59 419.295 1604.97 399.034C1596.33 386.17 1593.96 386.702 1585.7 399.627C1546.7 460.668 1468.98 478.764 1414.96 433.801C1388.55 411.815 1371.26 353.483 1383.72 321.112C1398.15 283.637 1424.66 263.098 1465.44 269.958C1495.71 275.051 1512 296.198 1506.24 322.9C1501.87 343.117 1489.71 349.967 1471.61 342.156C1462.15 338.074 1455.38 341.99 1450.07 349.704C1444.43 357.906 1447.02 364.777 1453.91 370.896C1468.99 384.307 1487.19 389.545 1504.8 382.038C1524.71 373.554 1534.41 354.275 1537.68 332.216C1546.94 269.896 1503.67 236.595 1460.16 229.474C1445.19 227.023 1428.26 230.882 1414.59 241.202C1409.55 245.008 1404.54 248.864 1399.49 252.653C1395.11 255.934 1390.79 262.617 1385.11 255.927C1381.3 251.441 1376.68 247.489 1380.48 238.545C1388.22 220.309 1392.8 200.87 1392.63 180.412C1392.41 154.035 1377.78 137.519 1358.25 124.55C1351.45 120.033 1344.65 120.763 1337.32 127.601C1311.52 151.683 1303.14 179.367 1316.57 213.432C1319.89 221.86 1321.64 230.941 1324.49 239.592C1327.38 248.406 1321.59 252.835 1316.27 256.902C1310.75 261.124 1307.37 256.62 1303.27 252.64C1288.07 237.859 1269.74 229.117 1249.03 227.453C1237.17 226.5 1225.87 232.725 1215.91 237.88C1169.48 261.912 1152.44 309.422 1173.79 355.465C1189.47 389.261 1222.33 395.182 1251.47 370.125C1257.34 365.07 1256.78 356.339 1253.07 349.046C1248.62 340.29 1241.31 339.798 1232.92 341.574C1225.29 343.186 1217.47 353.729 1210.17 344.997C1202.37 335.677 1196.03 324.967 1197.28 310.635C1199.03 290.59 1211 277.282 1236.18 271.054C1277.96 260.721 1310.55 285.547 1320.56 328.996C1329.42 367.435 1317.48 398.245 1296.38 426.429C1274.48 455.678 1241.82 461.498 1208.9 457.868C1170.68 453.653 1138.74 435.856 1119.63 398.867C1115.02 389.956 1109.07 383.28 1101.46 394.511C1070.91 439.566 1024.93 450.237 976.758 456.299C963.352 457.986 949.853 458.946 936.374 459.881C933.009 460.114 928.446 461.098 926.985 456.349C925.87 452.726 929.323 450.886 931.341 448.494C953.015 422.813 974.316 396.787 996.286 371.384C1018.41 345.799 1041.41 321.026 1063.61 295.509C1093.2 261.495 1122.31 227.028 1151.78 192.898C1182.78 157.002 1214.34 121.625 1244.89 85.3268C1260.36 66.9492 1277.32 49.8287 1293.38 25.1618C1259.73 34.6199 1228.41 35.8642 1200.57 54.7971C1173.17 73.4353 1154.72 98.1923 1142.76 132.318C1135.27 114.84 1132.43 99.2039 1125.64 84.7596C1099.63 29.4803 1029.07 10.0612 977.58 45.7241C969.039 51.6394 966.096 60.559 961.799 68.9661C945.721 100.428 946.246 130.948 963.937 162.175C974.322 180.505 991.007 177.826 1006.15 179.673C1013.92 180.621 1022.71 177.401 1030.29 174.16C1041.4 169.402 1042.72 158.889 1040.2 148.147C1037.78 137.802 1030.01 141.346 1023.61 142.727C1011.14 145.416 998.633 148.566 990.601 133.841C980.53 115.378 981.752 96.6974 993.824 82.7473C1014.72 58.5989 1056.91 56.8485 1079.95 79.0724C1129.07 126.439 1113.13 197.193 1065.81 234.954C1048.72 248.591 1028.72 253.059 1009.3 258.093C992.895 262.348 977.401 249.668 960.374 247.376C958.364 255.875 964.38 263.184 965.441 271.475C970.535 311.322 940.743 349.491 909.552 363.277C904.301 365.598 899.578 363.789 894.727 361.161C858.642 341.614 832.713 296.644 848.201 253.352C848.856 251.521 848.623 249.346 848.892 246.344C834.039 250.419 820.256 254.707 806.241 257.898C792.575 261.009 780.334 252.922 768.422 248.766C741.529 239.381 718.339 220.335 708.702 193.011C697.599 161.53 691.32 127.024 713.584 95.9542C744.035 53.4576 791.335 53.5315 819.311 88.349C827.662 98.7425 830.184 110.913 824.098 122.857C817.04 136.706 807.355 148.204 789.525 143.145C780.742 140.653 769.876 137.251 767.568 149.417C765.457 160.547 770.014 171.65 783.069 175.777C801.828 181.708 821.08 183.64 836.372 169.738C855.431 152.412 863.726 128.857 858.998 102.398C854.942 79.703 845.486 57.1689 828.018 44.327C807.881 29.5219 782.872 23.0331 756.754 28.3712C726.651 34.524 703.799 51.9628 685.187 76.3262C677.808 85.9846 677.228 98.4123 673.507 109.559C671.802 114.665 670.96 120.775 664.296 120.933C657.663 121.09 656.961 115.517 655.022 110.157C645.712 84.4413 626.896 67.4028 605.319 52.88C578.798 35.0302 548.603 32.3455 516.065 26.596C530.261 52.1515 550.631 67.6124 566.306 87.2451C581.13 105.813 596.841 123.576 611.56 142.343C626.729 161.684 644.914 178.707 660.927 197.624C689.38 231.239 718.254 264.471 747.033 297.787C790.619 348.245 834.27 398.643 877.916 449.046C879.953 451.398 883.334 453.439 881.347 457.107C879.202 461.067 874.889 460.151 871.446 459.91C845.612 458.1 820.151 453.676 794.56 449.594C756.426 443.511 729.135 421.702 705.303 393.056C697.156 383.264 693.399 390.346 690.609 396.436C682.994 413.059 672.024 426.004 657.037 435.869C624.007 457.612 589.444 465.222 551.115 452.793C501.276 436.632 475.616 372.346 488.658 325.597C502.048 277.598 543.229 252.362 589.663 279.366C610.26 291.344 615.91 308.405 607.419 331.674C602.224 345.91 593.488 349.564 579.87 342.842C568.402 337.182 558.561 340.459 553.094 351.122C547.505 362.022 552.628 369.18 563.69 374.876C583.38 385.016 601.826 392.595 621.202 374.804C644.352 353.549 648.492 310.573 635.477 281.263C620.922 248.489 594.153 235.536 564.872 227.635C551.643 224.065 535.042 230.057 522.782 239.738C516.984 244.317 511.045 248.334 504.941 252.348C499.591 255.868 495.89 260.751 488.951 254.141C482.637 248.127 482.708 242.25 485.609 235.305C492.255 219.397 497.169 203.305 498.562 185.639C500.786 157.421 484.541 140.281 466.897 124.024C460.1 117.76 451.942 122.564 445.643 127.567C420.399 147.617 408.598 172.624 419.797 208.157C423.182 218.898 424.859 230.219 428.219 240.971C430.469 248.175 426.384 253.022 422.87 256.74C417.964 261.929 413.364 256.592 409.681 252.907C397.122 240.344 381.7 233.542 365.45 228.062C363.708 227.475 362.622 226.413 360.324 226.766C320.012 232.965 290.486 246.356 273.181 291.613C262.166 320.423 275.302 363.477 299.363 380.321C314.065 390.613 349.142 383.068 358.988 367.223C362.887 360.95 364.112 354.249 358.771 347.765C353.052 340.822 345.601 337.401 338.021 342.1C329.486 347.393 322.553 349.794 314.419 341.789C304.782 332.304 300.39 321.486 300.55 307.362C300.816 284.039 341.951 266.1 363.026 268.619C403.042 273.401 427.894 305.193 428.584 348.774C429.136 383.687 416.879 412.041 393.141 434.488C371.89 454.583 345.232 460.265 316.388 458.227C276.897 455.437 248.946 433.354 225.4 403.096C218.011 393.601 214.458 385.452 202.276 400.776C172.368 438.4 129.742 450.357 85.0166 455.641C72.1216 457.164 59.1558 458.047 46.2184 459.175C41.6703 459.572 35.9272 461.751 33.3771 456.634C30.3181 450.495 36.3325 447.023 39.6606 443.226C67.2592 411.746 95.2524 380.634 122.56 348.885C162.557 302.381 201 254.377 242.163 209.029C274.057 173.89 302.969 136.067 335.404 101.459C354.161 81.4453 371.223 59.7188 389.135 38.8444C390.833 36.8661 393.718 35.3457 392.487 32.3381C390.697 27.9629 386.363 28.3503 382.946 28.8487C330.52 36.4945 284.559 55.2681 258.572 107.888C257.386 110.29 256.551 112.89 255.255 115.22C253.191 118.934 251.184 123.455 246.018 122.219C241.26 121.08 239.942 116.621 239.557 112.161C236.148 72.6844 210.44 53.7341 179.347 37.5123C149.221 21.7939 121.494 26.5928 92.9189 40.072C68.8341 51.433 51.4646 90.8466 55.9656 126.129C56.8502 133.062 58.0476 140.131 60.3488 146.662C72.9458 182.414 99.2472 184.302 129.717 175.918C137.713 173.717 141.043 166.634 143.683 159.585C148.407 146.974 142.321 139.709 129.258 141.572C123.135 142.446 116.963 143.413 110.806 143.467C98.4697 143.578 91.4534 136.251 89.4691 124.196C83.4097 87.3805 98.8118 71.8457 134.2 64.2792C176.745 55.183 215.677 103.48 215.271 142.943C215.023 166.939 209.151 188.229 194.073 208.719C184.616 221.57 173.561 231.348 161.839 238.911C140.792 252.491 117.496 262.074 91.1097 253.31C64.9714 244.628 63.8083 245.311 66.9949 273.334C71.4537 312.553 52.0417 337.71 23.7731 358.36C19.8534 361.224 14.8071 367.065 10.3092 361.267C5.72681 355.36 8.42944 348.348 14.3375 344.536C24.6228 337.899 33.1398 329.9 40.2258 319.511C53.0594 300.698 52.6504 280.374 47.7552 259.705C45.0471 248.269 40.4331 237.236 35.8634 226.391C32.488 218.382 37.7496 215.683 42.2911 212.224C46.7065 208.859 50.3521 209.351 54.5663 213.608C77.9435 237.226 105.092 240.971 135.939 231.959C156.268 226.02 170.366 212.506 183.404 197.202C211.106 164.686 193.346 95.291 155.094 85.5568C137.172 80.996 121.638 90.523 105.893 96.7318C101.038 98.6463 102.439 106.471 103.963 111.548C105.876 117.919 109.168 123.658 116.899 123.397C122.607 123.205 128.302 122.594 134.002 122.158C145.709 121.263 156.421 123.563 161.298 136.014C166.599 149.545 167.187 163.87 158.354 176.02C133.723 209.898 73.744 210.186 49.7079 164.853C24.8287 117.931 36.1957 77.1537 65.6531 40.8532C77.917 25.7403 96.3914 13.1335 118.647 10.3498C178.074 2.91705 220.864 27.4231 251.28 82.5404C297.131 14.022 366.222 10.5907 439.014 8.51114C314.868 153.706 190.45 294.377 67.1622 441.613C136.899 433.934 191.073 409.322 217.189 337.452C226.579 355.542 228.431 373.43 237.772 388.715C270.357 442.037 343.633 467.642 390.416 409.423C410.343 384.626 419.102 353.344 404.967 320.586C390.856 287.882 351.398 273.522 327.21 298.345C320.833 304.889 317.932 311.705 321.103 320.002C324.871 329.864 333.676 328.013 341.288 326.993C361.988 324.222 373.085 330.331 377.543 347.556C381.016 360.974 371.294 383.841 358.994 390.006C348.55 395.24 340.233 403.554 326.73 403.999C288.503 405.259 259.641 372.71 253.143 336.233C241.737 272.209 306.444 194.705 374.448 214.721C377.921 215.744 381.636 215.852 385.217 216.51C399.352 219.111 405.437 212.072 401.254 198.23C393.311 171.941 401.299 149.776 418.919 130.963C427.561 121.736 437.927 114.278 447.128 105.582C452.695 100.321 458.257 100.704 464.372 103.597C495.45 118.304 518.304 156.724 515.739 190.952C514.946 201.524 512.588 211.969 510.662 224.295C524.221 219.131 535.718 213.918 548.759 212.119C590.284 206.39 644.927 235.507 655.906 291.709C660.029 312.818 660.1 332.422 655.839 352.211C649.669 380.866 627.344 395.022 603.026 401.954C582.231 407.881 561.532 399.329 545.71 383.742C530.256 368.517 534.497 333.623 552.663 326.297C560.771 323.027 570.996 325.061 580.242 325.336C586.451 325.521 591.741 324.703 594.547 318.227C597.426 311.583 593.593 306.903 589.873 302.255C572.816 280.943 541.986 281.47 522.906 300.497C489.98 333.334 500.145 375.7 519.416 404.106C546.86 444.557 598.384 452.185 632.555 430.003C655.251 415.269 672.023 398.554 682.06 372.403C686.326 361.291 690.278 350.332 692.208 337.113C705.285 345.273 706.038 359.566 711.702 370.15C724.339 393.766 743.969 408.92 765.79 420.13C784.499 429.741 804.258 438.997 826.047 439.727C830.434 439.874 836.086 443.525 838.889 438.079C841.472 433.062 836.64 428.896 833.857 425.415C824.574 413.795 814.983 402.414 805.064 391.374C758.126 339.131 713.184 285.059 667.662 231.505C642.456 201.852 616.43 172.732 589.905 144.164C564.188 116.465 541.093 85.8833 516.23 57.1207C505.467 44.6682 494.843 32.0848 484.066 19.6454C478.987 13.7842 477.5 8.04364 487.445 8.98172C512.145 11.3115 537.227 8.94998 561.555 16.4055C579.863 22.0166 598.272 25.7913 615.136 36.8251C630.73 47.028 644.2 58.8634 655.577 73.4059C659.981 79.0348 662.338 80.8587 666.7 74.0292C671.533 66.4627 677.455 59.7393 682.545 52.2946C695.113 33.9131 713.663 20.3268 733.752 15.1396C776.634 4.06668 819.254 4.70819 850.968 44.2842C887.278 89.5954 887.359 161.366 833.443 194.889C814.699 206.543 793.886 201.51 775.153 191.785C759.029 183.415 750.384 169.439 751.189 149.903C752.05 129.004 758.985 121.847 779.005 122.212C783.682 122.297 788.367 123.131 793.022 122.935C801.02 122.597 809.008 121.906 810.152 110.749C811.211 100.43 806.279 94.5398 797.558 91.0098C750.371 71.9088 708.716 106.668 716.406 158.974C721.434 193.173 740.958 217.216 770.464 229.971C801.261 243.284 831.834 239.559 857.247 214.502C864.219 207.627 869.408 211.334 875.187 214.84C881.981 218.962 877.742 223.612 875.812 228.61C866.708 252.184 858.495 275.877 864.823 302.113C869.152 320.064 880.212 332.022 894.727 341.298C901.052 345.34 907.541 345.079 913.989 341.354C931.636 331.161 944.457 318.734 943.66 294.729C942.904 271.958 942.96 249.329 934.084 228.124C931.31 221.496 930.998 217.671 937.171 213.295C943.239 208.994 947.128 210.421 952.004 215.228C983.84 246.605 1029.98 242.165 1062.99 215.992C1099.44 187.089 1103.07 129.01 1071.53 96.9917C1061.23 86.5259 1049.72 81.5408 1034.9 86.8263C1027.19 89.5733 1018.27 88.6863 1010.62 91.5322C1003.19 94.2977 994.211 97.7612 996.961 109.706C999.492 120.704 1006.78 124.216 1016.81 123.396C1020.43 123.1 1024.04 122.354 1027.67 122.291C1037.51 122.118 1048.95 120.19 1054.37 130.952C1060.82 143.784 1062.06 158.284 1054.7 171.412C1036.02 204.747 987.355 210.007 960.459 183.068C936.184 158.753 931.821 129.411 935.254 96.4971C938.907 61.4684 957.279 38.1959 986.189 22.6024C1028.1 -0.00195312 1066.96 5.8627 1105.89 32.9518C1120.62 43.1995 1126.58 59.112 1138.79 70.352C1144.64 75.7434 1148.28 79.4861 1154.88 71.3307C1191.96 25.487 1242.38 12.4982 1296.89 10.2616C1307.67 9.81924 1318.47 6.55606 1330.22 9.99786C1320.43 30.6936 1303.27 44.5695 1289.06 60.4999C1266.24 86.0809 1246.43 114.464 1222.91 139.083C1177.19 186.965 1137.38 240.225 1092.74 289.067C1051.36 334.347 1011.72 381.357 971.299 427.582C969.229 429.948 966.252 431.96 967.917 435.751C969.417 439.166 972.824 440.161 975.848 439.715C988.681 437.823 1001.99 437.159 1014.12 432.92C1031.6 426.807 1050.99 421.327 1064.37 409.326C1076.54 398.422 1091.12 387.6 1097.88 370.405C1102.48 358.709 1108.57 347.649 1115.68 332.789Z" stroke="#1DC696" stroke-width="16" mask="url(#path-1-outside-1_24_56)"/>
</svg>
