<svg width="4433" height="1972" viewBox="0 0 4433 1972" fill="none" xmlns="http://www.w3.org/2000/svg">
<path fill-rule="evenodd" clip-rule="evenodd" d="M4429.67 1777C4431.44 1951.77 4437.86 1954.77 4426.01 1966.3C4416.31 1975.72 296.334 1971.09 25.5986 1969.06C2.2569 1519.07 14.9578 432.375 0 308.422C3.57271 259.818 0.904083 261.362 0.63732 213.14C4.38153 185.355 1.43766 127.757 46.1871 82.7079C79.1418 49.5306 186.523 7.8162 222.984 34.5143C387.758 155.18 76.036 224.374 142.003 335.301C227.824 479.616 555.742 -98.9475 756.739 157.038C884.051 319.18 608.475 361.037 596.137 365.687C510.192 398.092 664.639 409.64 690.982 423.418C1173.77 675.906 736.903 1411.36 348.887 1079.66C211.019 961.802 350.335 705.063 503.514 935.599C528.533 973.254 621.843 927.996 642.059 907.034C859.7 681.367 381.918 417.378 209.456 730.475C77.3896 970.225 210.657 1098.85 300.213 1185.62C517.624 1396.27 301.508 1512.43 196.68 1422.26C68.1476 1311.72 60.1065 1551.15 112.23 1602.1C274.774 1761 403.763 1469.44 480.724 1402.99C871.046 1065.96 1076.77 1531.75 862.1 1612.05C753.328 1652.72 757.816 1467.43 673.357 1548.13C538.803 1676.7 688.724 1896.49 985.745 1773.21C1201.88 1683.5 1174.87 1284.99 1182.43 1519.23C1192.11 1819.61 1577.41 1823.05 1700.96 1718.26C1830.31 1608.56 1782.79 1530.48 1800.53 1512.22C1875.95 1434.61 1762.65 1821.92 2206.46 1779.66C2471.81 1754.39 2312.26 1425.86 2232.43 1555.15C2178.55 1642.42 2046.2 1601.27 2034.55 1509.02C1994.37 1190.74 2409.99 1229.78 2564.81 1444.79C2778.91 1742.13 2901.84 1539.39 2888.48 1442.76C2866.18 1281.51 2720.11 1460.39 2644.22 1423.79C2479.71 1344.47 2722.7 1126.97 2739.25 1108.38C2852.86 980.725 2812.85 611.62 2587.53 581.997C2270.55 540.32 2265.55 802.728 2339.7 880.002C2463.02 1008.52 2499.7 816.525 2577.67 815.42C2817.3 812.047 2616.75 1316.02 2217 1059.24C2121.03 997.59 2025.85 815.524 2078.92 678.918C2195.21 379.522 2293.34 430.641 2385.92 391.271C2394.98 387.421 2462.37 302.438 2292.12 311.556C2154.7 318.922 2174.71 169.091 2265.19 121.564C2513.68 -8.9822 2754.06 427.754 2813.35 316.893C2837.5 271.758 2735.13 179.648 2724.96 170.492C2652.87 105.623 2692.52 -89.2953 2979.97 65.9196C2996.62 74.9142 3109.55 -28.8291 3176.01 7.90226C3350.22 104.176 3133.24 202.649 3114.19 261.867C3079.26 370.394 3186.72 353.061 3319.88 221.782C3628.08 -82.0547 3764.14 203.755 3746.36 250.034C3729.14 294.845 3618.48 298.284 3606.65 298.655C3548.63 300.456 3498.81 399.816 3653.18 454.88C3831.37 518.443 3987.98 764.138 3811.83 1048.94C3631.56 1340.4 3161.22 1091.24 3277.48 873.085C3332.9 769.084 3461.39 883.432 3465.94 885.966C3587.24 953.388 3695.5 798.077 3633 690.952C3455.12 386.039 2891.1 714.296 3287.75 1189.52C3485.9 1426.9 3245.61 1488.49 3155.69 1378.16C3097.99 1307.37 2994.76 1494.79 3094.71 1562.45C3330.89 1722.34 3358.89 1379.12 3595.38 1285.26C3957.33 1141.6 4020.07 1586.97 3825.96 1606.11C3718.43 1616.71 3714.1 1430.88 3627.91 1539.28C3485.26 1718.71 3797.78 1833 3930.12 1774.83C4079.96 1708.96 4060.35 1683.38 4114.55 1530.07C4127.23 1494.22 4166.26 1604.99 4182.98 1629.57C4288.7 1785.06 4424.04 1775.94 4429.62 1777.02L4429.67 1777Z" fill="#2F5435"/>
</svg>
