<svg width="1908" height="719" viewBox="0 0 1908 719" fill="none" xmlns="http://www.w3.org/2000/svg">
<path fill-rule="evenodd" clip-rule="evenodd" d="M58.7558 254.064C101.555 257.132 104.268 254.915 142.217 278.719C145.728 280.917 178.649 258.062 204.211 254.357C363.401 231.28 484.536 333.56 507.385 334.287C779.694 342.922 868.962 372.506 984.644 282.008C1003.18 267.504 918.881 284.464 826.004 233.541C639.993 131.571 712.193 20.5494 759.824 0.0614815C764.905 -2.12827 827.334 54.5748 848.374 106.287C860.424 135.906 858.136 98.5916 875.648 72.3234C898.355 38.2537 905.874 54.1934 907.727 55.8247C964.73 105.976 999.487 79.6194 1033.38 191.253C1038.9 209.427 1057.66 204.568 1120.5 204.125C1305.49 202.831 1305.93 264.543 1761.55 340.014C2158.33 405.742 1630.84 338.684 1560.57 338.073C1541.22 337.904 1458.7 448.092 1458.02 451.984C1446.13 519.432 1492.16 585.701 1487.4 588.015C1438.22 611.978 1384.61 590.373 1383.24 595.09C1367.91 647.732 1363.39 645.959 1351.6 700.003C1351.12 702.184 1348.85 704.826 1326.43 688.061C1307.47 673.885 1306.22 688.841 1282.75 692.458C1253.9 696.9 1256.99 703.052 1241.9 718.407C1238.51 721.847 1236.03 709.232 1235.85 708.301C1210.4 578.893 1253.83 536.081 1317.32 499.485C1388.38 458.527 1387.82 457.738 1394.16 454.502C1435.62 433.34 1441.01 440.503 1469.89 404.208C1526.63 332.913 1529.58 327.709 1522.36 325.466C1381.46 281.866 1372.96 280.031 1359.7 277.158C1148.9 231.555 1147.19 252.885 1135.53 259.836C909.473 394.554 739.44 368.765 539.437 360.041C422.807 354.952 419.411 376.965 338.628 376.664C311.177 376.566 312.959 382.577 289.064 395.698C206.703 440.894 214.975 460.672 208.884 455.486C152.129 407.179 149.044 378.951 146.792 372.648C142.855 361.601 111.831 414.714 3.23355 411.354C-5.87238 411.07 1.71737 373.517 59.1459 339.34C75.3806 329.677 35.153 326.867 11.8252 274.676C3.81869 256.768 17.0298 256.981 58.7735 254.064H58.7558Z" fill="#FFA6DB"/>
</svg>
