<svg width="859" height="747" viewBox="0 0 859 747" fill="none" xmlns="http://www.w3.org/2000/svg">
<path fill-rule="evenodd" clip-rule="evenodd" d="M432.776 6.69451C513.487 90.0281 478.126 191.053 477.451 194.388L475.256 201.655C468.738 220.033 480.61 214.383 481.313 213.577C483.111 211.526 482.801 211.614 484.577 209.268C485.348 208.097 484.964 208.181 485.882 206.784C486.487 205.863 486.449 205.937 493.519 195.327L504.56 180.327L511.046 172.088L514.187 167.888L515.903 165.499C603.145 68.39 737.162 92.188 799.019 179.159C848.097 248.164 811.52 427.088 857.549 508.954C869.258 529.783 807.039 506.643 781.362 470.132C748.646 423.609 750.018 389.222 748.558 373.863C748.333 365.638 749.923 364.08 742.544 360.946C630.75 420.893 525.358 326.791 594.014 228.792L601.028 221C619.614 204.867 636.42 191.067 671.897 196.643C693.244 203.418 713.792 208.652 717.384 242.856C718.136 250.036 714.271 269.314 701.474 280.31C684.447 294.944 664.01 287.156 660.521 286.653C652.952 287.979 650.233 285.689 650.293 291.701C650.359 298.511 651.109 298.033 654.89 303.742C658.221 306.821 661.552 309.899 664.883 312.977C668.566 315.495 700.912 346.037 740.37 307.855C742.663 305.136 744.957 302.416 747.25 299.697C748.245 298.258 749.241 296.816 750.236 295.377L751.861 292.433C759.037 276.061 779.29 242.522 741.007 187.985C738.97 185.083 683.441 118.846 603.8 163.543C592.213 171.23 508.682 226.657 499.846 302.824C492.375 367.229 628.333 461.576 666.828 538.93C668.147 541.579 686.001 582.8 687.655 586.621C703.405 622.984 712.305 721.571 704.482 728.301C703.835 728.856 662.677 737.996 660.082 718.004C659.378 712.601 659.037 699.549 655.611 673.205C655.009 669.363 654.412 665.518 653.81 661.677C644.784 625.851 646.747 625.44 633.465 591.137C631.499 585.917 629.536 580.7 627.57 575.48C617.739 556.892 618.14 557.078 607.134 538.968C605.629 536.675 604.123 534.381 602.618 532.084C518.503 410.132 473.082 386.028 449.618 322.105C448.555 319.21 435.13 289.777 433.853 286.973C427.792 277.661 428.784 276.17 424.584 276.019C419.706 275.846 421.324 278.404 415.531 290.691C406.579 311.784 407.521 311.76 399.217 332.979C375.928 392.493 265.19 498.242 228.405 597.494C194.349 689.383 216.98 742.868 193.072 745.123C191.841 745.239 157.188 751.307 153.797 740.986C152.404 736.747 155.464 648.499 164.719 617.518C215.084 448.909 364.905 389.113 350.589 298.905C344.574 261.001 265.464 142.757 177.948 160.993C146.365 167.575 130.192 177.896 128.806 178.6L124.385 181.526C119.098 185.829 119.239 185.459 114.258 190.518C107.628 197.828 108.275 198.011 98.4437 212.487C92.3304 225.693 92.4465 225.376 86.4599 238.638C80.2165 265.215 81.5355 265.345 87.7297 291.715C92.4711 311.9 132.629 355.94 174.93 333.922L181.655 329.004C191.043 319.847 192.348 321.135 199.587 306.367C199.741 305.508 201.317 296.848 200.019 295.476C197.589 292.911 182.893 297.72 181.468 298.184C178.324 298.431 155.464 306.814 136.189 276.937C99.5305 220.113 214.458 171.715 253.874 238.35C256.857 243.394 279.249 263.02 276.347 314.064C274.778 341.679 241.521 369.48 237.17 373.117L233.002 376.146C178.06 400.233 153.262 395.04 118.233 380.955C108.743 375.502 105.651 374.282 101.409 384.438C101.198 396.198 100.8 396.008 97.5784 429.649C90.7476 452.975 81.7009 508.856 9.32676 537.621C-10.6626 545.564 6.86454 515.079 12.3763 470.944C29.0805 337.148 8.49311 259.83 43.6249 198.268L48.1413 191.44L58.2151 179.349L63.4631 173.158C72.3692 164.268 83.9766 151.101 111.022 135.221L115.369 132.541C154.195 117.21 168.071 111.051 215.116 113.298C220.209 113.794 225.299 114.291 230.392 114.79C311.071 130.261 339.14 180.39 356.459 202.665C357.441 204.157 377.493 234.642 376.252 213.007C376.199 212.11 370.346 195.577 369.815 194.067C361.549 160.754 349.446 116.194 375.369 55.5359L377.047 52.6619C379.354 49.0948 394.718 25.3496 408.144 9.60384C418.035 -1.99792 421.148 -3.23973 432.773 6.70514L432.776 6.69451Z" fill="#46FFFC"/>
</svg>
