<svg width="857" height="757" viewBox="0 0 857 757" fill="none" xmlns="http://www.w3.org/2000/svg">
<path fill-rule="evenodd" clip-rule="evenodd" d="M496.515 406.497C488.747 369.213 490.168 369.247 476.609 333.793C476.207 332.744 466.718 305.552 488.901 326.994C496.83 334.658 546.088 382.266 622.071 362.652C800.924 316.482 785.728 93.948 640.649 85.8072C492.321 77.482 547.466 287.637 622.406 205.928C672.146 151.698 694.466 247.084 633.437 283.178C497.112 363.808 421.407 144.409 519.285 48.0268C606.362 -37.7199 767.371 -3.49025 827.187 109.753C893.037 234.421 879.753 312.563 471.372 718.517C441.374 748.338 437.39 773.544 407.858 743.275C297.189 629.843 121.193 461.85 34.0113 326.555C-67.5342 168.965 72.8847 -40.5195 262.621 7.20211C438.597 51.4636 396.911 332.355 251.05 297.384C156.596 274.739 173.263 141.951 233.055 205.75C295.61 272.496 351.825 132.208 261.88 93.0997C127.899 34.8433 18.8931 257.596 185.045 344.12C301.401 404.714 369.307 320.767 372.857 322.149C383.764 326.393 376.76 329.924 368.545 358.625C308.723 567.603 428.81 648.857 480.498 558.034C509.93 506.323 498.141 418.574 496.518 406.491L496.515 406.497Z" fill="#FD3492"/>
</svg>
