<svg width="1002" height="968" viewBox="0 0 1002 968" fill="none" xmlns="http://www.w3.org/2000/svg">
<path fill-rule="evenodd" clip-rule="evenodd" d="M279.196 36.5277C272.204 33.5395 271.596 33.3164 268.376 37.1852C143.051 57.7036 173.507 253.871 244.736 225.668C247.498 224.574 250.854 220.019 222.471 195.953C201.107 177.84 197.01 144.164 207.428 135.885C243.715 107.049 258.243 193.519 267.012 206.767C277.194 222.147 269.534 161.405 269.307 156.495C260.263 -39.7946 453.331 0.321269 465.256 59.066C466.128 63.3606 463.505 66.8964 410.5 60.5025C359.947 54.4028 310.086 98.0713 320.237 169.093C324.967 202.187 333.925 136.101 393.528 110.051C442.462 88.6656 501.661 146.727 448.596 152.503C365.351 161.56 369.502 194.996 331.273 223.452C235.495 294.743 299.327 508.728 454.835 536.403C486.474 542.032 472.683 475.204 462.556 466.875C423.325 434.608 402.674 502.777 395.352 498.214C338.376 462.7 399.782 372.431 465.404 413.258C474.332 418.812 469.033 377.045 429.584 366.032C359.856 346.564 349.829 436.383 338.976 426.974C268.515 365.891 369.873 287.169 446.63 317.13C545.23 355.619 427.474 302.844 425.581 301.995C366.634 275.576 368.987 247.406 374.529 241.401C409.843 203.146 455.92 282.893 478.196 288.107C490.431 290.97 474.566 256.824 473.665 254.128C449.724 182.483 500.398 163.55 520.45 184.242C549.229 213.94 522.107 267.148 517.957 281.399C509.986 308.778 562.086 255.134 565.189 251.94C600.682 215.397 627.424 236.945 629.378 247.523C635.909 282.859 545.794 314.076 542.231 316.152C541.783 316.412 520.359 333.826 542.169 322.62C624.886 280.12 724.309 360.013 670.592 418.852C641.177 451.072 658.824 391.112 619.694 371.631C550.782 337.324 517.227 423.123 535.626 413.364C614.018 371.783 656.471 469.484 605.663 498.28C595.893 503.817 585.988 439.592 542.103 464.26C527.086 472.702 514.729 542.548 546.163 536.421C720.655 502.41 745.85 283.072 681.066 231.448C651.527 207.909 654.679 204.784 625.909 180.681C571.587 135.168 517.487 162.556 531.645 135.508C556.105 88.7839 630.02 95.8758 671.4 171.189C685.465 196.788 683.673 140.736 678.741 122.851C654.654 35.5102 558.867 67.1313 544.065 64.5758C517.392 59.9684 564.962 4.49928 630.75 11.3478C769.222 25.7614 725.076 203.731 728.242 207.458C736.719 217.435 748.02 166.49 752.452 154.737C765.074 121.267 791.513 131.93 795.59 137.888C820.304 173.996 741.058 219.25 756.306 225.605C825.458 254.427 859.7 61.8547 734.738 37.3187C729.593 32.0286 726.917 34.3559 721.796 36.5007C693.443 20.4814 748.117 -13.2186 787.223 6.95002C844.896 36.6934 850.187 101.009 851.076 101.697C868.599 115.267 844.423 7.5382 880.801 1.08688C935.009 -8.52671 895.677 76.0198 895.87 78.0919C898.127 102.356 947.331 -24.35 987.986 15.5647C1020.11 47.1064 932.017 100.419 924.001 106.493C878.565 140.93 963.243 106.823 971.955 104.793C977.47 107.23 977.35 106.419 982.834 104.844C991.124 108.476 991.719 107.295 996.689 114.643C1026.55 158.807 921.863 148.176 896.426 161.601C886.864 166.646 915.195 168.083 916.914 168.17C998.77 172.32 993.202 229.229 988.148 243.076C981.306 261.822 965.877 237.656 961.223 233.077C913.829 186.443 803.339 220.677 781.913 302.808C779.217 313.142 865.544 274.596 879.745 312.988C902.32 374.019 756.925 321.126 793.222 339.449C818.467 352.193 841.37 398.895 808.582 418.837C767.821 443.628 782.049 400.717 770.092 383.723C743.727 346.248 724.02 396.703 722.553 400.458C707.888 438.007 730.242 434.29 770.701 437.128C776.274 443.268 790.022 438.774 791.938 437.057C794.486 436.876 823.806 434.794 823.806 434.794C993.956 409.332 928.315 293.746 931.018 285.525C939.736 259.001 1025.66 322.152 986.003 393.39C960.18 439.776 908.435 447.299 906.632 449.253C891.408 465.747 994.287 421.379 1000.71 466.138C1009.96 530.604 856.694 454.653 916.503 490.008C992.318 534.822 959.18 589.893 940.052 596.516C927.191 600.972 925.793 502.726 804.728 476.176C766.734 467.843 669.153 466.07 743.205 480.617C827.581 497.193 850.171 566.661 814.486 602.969C769.237 649.007 806.437 547.255 734.405 519.684C672.307 495.913 618.893 535.757 618.768 536.046C616.205 541.93 736.288 551.406 733.797 603.674C730.66 669.528 659.634 598.103 647.188 589.763C557.233 529.47 537.434 597.564 543.915 595.075C630.978 561.62 652.624 653.464 617.486 676.893C602.794 686.689 601.03 678.07 597.61 660.776C592.468 634.775 564.928 625.43 542.137 636.167C515.048 648.926 509.46 720.782 531.508 714.876C563.597 706.282 563.434 706.997 596.897 704.512C600.205 706.124 603.842 709.552 609.672 704.133C622.412 703.954 720.868 707.243 744.463 683.301C771.642 655.721 768.377 649.136 825.943 631.601C871.173 617.823 867.654 557.538 886.572 591.38C927.384 664.396 817.182 673.76 792.316 691.109C773.212 704.44 799.865 696.737 864.05 691.638C905.506 688.346 910.449 722.068 887.525 735.472C850.415 757.169 770.44 730.243 777.775 741.112C831.282 820.408 969.622 768.895 939.239 654.828C927.646 611.3 955.152 630.117 956.894 631.661C1044.23 709.126 962.141 800.325 895.883 813.961C823.492 828.86 945.684 813.701 961.529 817.545C1010.73 829.482 993.033 879.299 944.608 863.875C868.59 839.662 1008.22 883.734 992.769 927.787C969.327 994.612 903.356 881.219 899.516 878.04C885.104 866.111 910.526 905.155 911.912 907.285C934.992 942.731 909.766 956.345 895.758 955.939C861.136 954.935 839.168 812.582 841.836 877.111C844.789 948.506 772.151 954.591 757.826 949.632C737.735 942.675 769.59 934.713 779.871 889.871C784.967 884.279 782.431 883.418 780.352 879.225C779.059 864.059 770.16 759.613 654.243 736.759C543.563 714.935 511.38 797.406 533.183 783.53C643.576 713.277 748.24 817.529 720.93 893.61C715.621 908.399 662.511 971.12 670.981 908.859C676.947 864.997 633.661 819.678 598.983 816.248C525.519 808.984 510.43 918.281 524.431 897.658C583.559 810.561 647.849 903.577 621.741 922.988C608.633 932.734 607.831 924.509 586.076 916.067C554.849 903.95 531.194 951.511 546.138 945.126C601.042 921.667 597.456 964.843 590.169 967.157C585.629 968.599 432.601 967.771 418.9 967.696C382.688 967.5 420.392 925.485 450.936 942.329C467.566 951.499 454.375 927.004 447.915 922.371C424.449 905.548 402.693 921.873 399.593 923.166C360.546 939.46 364.677 873.749 412.529 864.347C465.609 853.918 479.65 911.411 479.816 895.961C480.793 805.041 366.582 786.541 333.504 876.847C323.302 904.704 343.262 949.931 313.49 931.267C233.881 881.36 289.821 773.474 380.837 761.465C450.293 752.303 482.972 807.116 469.245 771.339C457.021 739.48 394.161 729.229 359.456 734.572C232.415 754.125 222.49 857.234 220.99 872.814C212.245 880.876 220.248 888.899 221.212 889.866C227.277 918.66 235.647 920.973 244.678 932.463C261.557 953.938 219.941 953.987 198.696 944.38C149.26 922.023 160.62 869.708 159.905 866.642C153.418 838.783 139.525 964.179 98.8772 955.366C53.9122 945.619 105.601 884.196 105.899 881.373C109.149 850.521 44.6732 990.667 12.174 936.29C-10.557 898.255 57.1441 871.048 68.6938 863.895C90.4478 850.423 18.4432 885.053 9.47619 849.607C-2.29159 803.089 108.973 821.113 111.363 820.933C149.828 818.052 85.8638 821.469 41.7117 779.499C-54.8476 687.71 82.5407 582.586 65.2862 644.07C22.9023 795.099 192.976 805.577 224.244 739.378C224.626 738.57 224.731 736.221 213.124 738.341C204.037 740 100.96 758.824 99.8457 715.968C98.6389 669.506 207.157 706.414 212.568 698.492C215.691 693.917 213.575 689.899 149.718 669.399C99.3319 653.224 101.602 611.765 114.512 591.429C129.6 567.662 139.549 600.855 139.76 601.239C164.643 646.489 203.915 624.238 244.876 669.59C275.624 703.635 290.544 702.677 393.435 704.162C397.159 708.097 397.769 707.543 404.091 704.521C436.739 707.068 436.661 706.008 450.775 709.317C456.213 710.592 469.977 715.216 474.003 715.6C487.226 716.86 490.808 640.744 448.738 632.495C400.903 623.114 402.671 682.158 395.621 681.697C338.726 677.97 374.732 559.891 450.45 591.593C474.73 601.758 446.843 574.588 443.897 572.526C382.568 529.612 298.45 666.293 272.394 622.913C236.487 563.134 366.044 542.054 376.538 540.346C398.297 536.805 346.557 516.383 325.511 513.359C217.394 497.827 210.835 606.105 209.251 612.252C203.788 633.473 137.418 562.079 192.284 512.767C228.09 480.587 273.229 478.351 283.017 476.064C304.369 471.075 261.829 470.5 259.93 470.475C111.384 468.469 79.1247 559.566 68.1446 590.616C59.5004 615.062 -6.16567 543.449 84.5064 490.057C151.276 450.739 11.8984 523.488 1.00618 476.639C-10.6264 426.607 82.2787 452.182 90.3752 453.36C153.676 462.568 37.3678 450.47 12.4546 387.319C-23.6736 295.74 86.5651 256.794 68.954 296.286C67.1302 300.378 54.8284 327.963 60.2053 351.6C78.7342 433.06 174.998 434.633 211.166 437.099C214.773 440.95 215.409 440.644 221.78 437.343C265.021 434.872 264.764 435.107 268.481 434.674C298.815 431.143 275.244 371.356 251.458 370.68C223.85 369.894 222.826 422.04 221.638 423.44C205.12 442.922 141.207 387.74 203.656 341.871C229.508 322.884 194.368 338.44 162.486 343.353C114.151 350.803 114.485 318.516 124.543 307.189C146.569 282.384 204.841 303.484 215.531 306.251C233.323 310.857 189.412 205.656 81.9743 212.628C34.8592 215.686 14.5826 281.058 10.5209 232.733C4.45949 160.626 103.318 168.098 104.984 166.827C114.531 159.544 76.1699 154.178 73.4672 153.799C67.8436 148.56 67.0407 151.117 62.798 153.207C60.9658 153.096 -2.20705 156.415 1.13803 124.708C5.3536 84.7461 68.1495 118.999 75.4752 120.78C142.906 137.178 -22.9908 60.5651 10.3366 19.1123C41.0373 -19.075 77.3075 47.9126 99.4097 77.6188C130.011 118.75 62.2385 14.0317 107.239 1.4401C149.243 -10.3132 136.814 52.351 145.325 99.3609C151.918 135.791 146.604 86.7118 165.24 55.1769C223.976 -44.216 312.102 18.6577 279.189 36.5294L279.196 36.5277Z" fill="#C4F360"/>
</svg>
