<svg xmlns="http://www.w3.org/2000/svg" viewBox="0 0 1811 336" width="1811" height="336" fill="#4A1A2C"><path fill-rule="evenodd" clip-rule="evenodd" d="M69.2018 168.008C86.6959 182.366 109.327 205.088 115.07 198.674C130.879 181.017 142.997 176.168 124.284 161.703C121.485 159.54 89.8998 135.124 92.5534 130.279C103.681 109.967 105.333 100.562 123.537 113.163C182.208 153.776 183.092 157.315 179.542 162.239C174.757 168.875 120.993 243.442 118.757 244.361C112.674 246.861 -1.86704 155.562 0.0231358 146.817C0.0719003 146.592 101.349 -2.37742 108.076 0.0288399C117.623 3.44364 226.493 91.2532 236.629 99.4275C252.489 112.221 252.974 99.0273 298.448 64.0542C379.643 1.60932 380.534 -2.16461 387.592 2.85595C389.817 4.43876 475.525 126.104 487.278 142.497C495.66 154.189 475.078 160.854 436.958 193.523C375.188 246.461 373.006 249.081 368.828 243.558C363.854 236.982 310.613 166.601 310.127 158.394C309.839 153.547 378.24 102.727 382.557 108.144C400.581 130.764 400.429 136.5 391.177 143.371C360.218 166.363 349.21 167.645 360.719 183.026C371.886 197.948 372.233 207.689 386.922 196.742C449.318 150.241 449.106 146.344 446.467 140.09C444.783 136.097 388.461 42.9943 374.746 46.9557C371.27 47.9595 263.941 121.92 261.331 137.393C258.656 153.251 258.215 239.872 258.169 248.787C258.137 255.274 257.957 290.443 258.979 329.867C259.036 332.067 230.001 346.818 229.748 320.7C228.012 141.346 233.915 138.057 221.081 125.831C211.047 116.272 120.386 45.2091 116.353 45.0549C105.667 44.6475 33.592 136.456 43.1288 145.131C45.1849 147.001 58.4881 159.101 69.1988 168.009L69.2018 168.008Z"/></svg>